<svg xmlns="http://www.w3.org/2000/svg" viewBox="0 0 100 100" width="100" height="100">
  <defs>
    <linearGradient id="leafGrad" x1="0%" y1="0%" x2="100%" y2="100%">
      <stop offset="0%" style="stop-color:#1b5e20;stop-opacity:1" />
      <stop offset="100%" style="stop-color:#2e7d32;stop-opacity:1" />
    </linearGradient>
  </defs>
  <!-- Main leaf shape -->
  <path d="M50 8 C25 20, 18 45, 22 65 C26 85, 40 95, 50 95 C60 95, 74 85, 78 65 C82 45, 75 20, 50 8Z" fill="url(#leafGrad)"/>
  <!-- Inner curve/vein to create the split leaf effect -->
  <path d="M50 18 C42 35, 40 55, 44 72 C46 80, 48 88, 50 93" fill="none" stroke="white" stroke-width="4" stroke-linecap="round"/>
  <!-- Secondary inner curve -->
  <path d="M50 30 C55 42, 58 55, 56 68 C54 78, 52 86, 50 93" fill="none" stroke="rgba(255,255,255,0.3)" stroke-width="2.5" stroke-linecap="round"/>
</svg>
